<?xml version="1.0" standalone="no"?><!DOCTYPE svg PUBLIC "-//W3C//DTD SVG 1.1//EN" "http://www.w3.org/Graphics/SVG/1.1/DTD/svg11.dtd"><svg t="1688117501482" class="icon" viewBox="0 0 1024 1024" version="1.1" xmlns="http://www.w3.org/2000/svg" p-id="4132" xmlns:xlink="http://www.w3.org/1999/xlink" width="48" height="48"><path d="M512 0C230.4 0 0 230.4 0 512s230.4 512 512 512 512-230.4 512-512S793.6 0 512 0z m281.6 736c16 16 16 41.6 0 57.6s-41.6 16-57.6 0L518.4 576 300.8 793.6c-16 16-41.6 16-57.6 0s-16-41.6 0-57.6l217.6-217.6-217.6-217.6c-16-16-16-41.6 0-57.6s41.6-16 57.6 0l217.6 217.6L736 243.2c16-16 41.6-16 57.6 0s16 41.6 0 57.6L576 518.4 793.6 736z" fill="#bfbfbf" p-id="4133"></path></svg>